<?xml version="1.0" encoding="utf-8"?>
<!-- Generator: Adobe Illustrator 27.5.0, SVG Export Plug-In . SVG Version: 6.00 Build 0)  -->
<svg version="1.1" id="Layer_2" xmlns="http://www.w3.org/2000/svg" xmlns:xlink="http://www.w3.org/1999/xlink" x="0px" y="0px"
	 viewBox="0 0 2400 2000" style="enable-background:new 0 0 2400 2000;" xml:space="preserve">
<g>
	<rect x="0" style="fill:#FFFFFF;" width="2400" height="2000"/>
	<g>
		
			<radialGradient id="SVGID_1_" cx="-4810.4019" cy="1177.4557" r="3331.011" gradientTransform="matrix(0.245 0 0 0.2461 2258.5479 570.2285)" gradientUnits="userSpaceOnUse">
			<stop  offset="0" style="stop-color:#4F1CBA"/>
			<stop  offset="0.0354" style="stop-color:#4E27BD"/>
			<stop  offset="0.1706" style="stop-color:#4B4CC7"/>
			<stop  offset="0.3123" style="stop-color:#486BCF"/>
			<stop  offset="0.46" style="stop-color:#4683D5"/>
			<stop  offset="0.6163" style="stop-color:#4594D9"/>
			<stop  offset="0.7873" style="stop-color:#449EDC"/>
			<stop  offset="1" style="stop-color:#44A1DC"/>
		</radialGradient>
		<path style="fill:url(#SVGID_1_);" d="M1968.883,413.285c-71.625-202.428-201.546-360.928-549.176-161.441
			C1072.078,451.33,948.5,416.301,744.676,364.894c-203.825-51.406-572.414,22.658-584.371,347.727
			c-9.836,267.516,219.57,521.453,352.449,606.839c374.063,240.391,730.308,376.243,1114.867,36.938
			C2012.18,1017.098,2040.509,615.711,1968.883,413.285z"/>
	</g>
	<g>
		
			<radialGradient id="SVGID_00000151542712102118963230000002394204116928398981_" cx="-3268.9602" cy="1588.4224" r="3002.3496" gradientTransform="matrix(0.2445 0 0 0.2458 2259.2595 569.5662)" gradientUnits="userSpaceOnUse">
			<stop  offset="0" style="stop-color:#4F1CBA"/>
			<stop  offset="0.0354" style="stop-color:#4E27BD"/>
			<stop  offset="0.1706" style="stop-color:#4B4CC7"/>
			<stop  offset="0.3123" style="stop-color:#486BCF"/>
			<stop  offset="0.46" style="stop-color:#4683D5"/>
			<stop  offset="0.6163" style="stop-color:#4594D9"/>
			<stop  offset="0.7873" style="stop-color:#449EDC"/>
			<stop  offset="1" style="stop-color:#44A1DC"/>
		</radialGradient>
		<path style="fill:url(#SVGID_00000151542712102118963230000002394204116928398981_);" d="M2229.355,963.33
			c-15.719-456.24-301.628-500.635-599.425-597.715c-297.802-97.078-684.524-211.724-852.778,83.334
			c-168.254,295.06-57.297,449.912,35.949,740.083c93.246,290.171,289.777,637.327,900.269,382.226
			C1969.652,1464.164,2245.079,1419.57,2229.355,963.33z"/>
	</g>
	<g>
		
			<radialGradient id="SVGID_00000180353392313753581150000002235693360794622091_" cx="-4741.5884" cy="2411.0935" r="3112.6851" gradientTransform="matrix(0.2445 0 0 0.2445 2259.3186 570.4866)" gradientUnits="userSpaceOnUse">
			<stop  offset="0" style="stop-color:#4F1CBA"/>
			<stop  offset="0.0354" style="stop-color:#4E27BD"/>
			<stop  offset="0.1706" style="stop-color:#4B4CC7"/>
			<stop  offset="0.3123" style="stop-color:#486BCF"/>
			<stop  offset="0.46" style="stop-color:#4683D5"/>
			<stop  offset="0.6163" style="stop-color:#4594D9"/>
			<stop  offset="0.7873" style="stop-color:#449EDC"/>
			<stop  offset="1" style="stop-color:#44A1DC"/>
		</radialGradient>
		<path style="fill:url(#SVGID_00000180353392313753581150000002235693360794622091_);" d="M1455.09,508.227
			c-352.223-184.762-715.773,42.904-888.691,241.881c-320.582,368.9-281.578,562.224-236.219,674.748
			c44.465,110.301,175.722,188.297,321.316,190.719c159.832,2.66,241.453,20.242,341.918,80.094
			c95.933,57.152,242.691,219.379,456.464,177.508c256.668-50.266,419.739-261.016,445.852-510.625
			C1924.914,1083.609,1807.317,692.988,1455.09,508.227z"/>
	</g>
	<rect x="0" style="opacity:0.43;fill:#EEB5F3;" width="2400" height="2000"/>
</g>
<g>
	<g>
		<g>
			<g>
				<g>
					<path style="fill:#585E8C;" d="M1743.482,1475.029c245.792,86.501-75.209,49.755-335.946,81.164
						c-335.355,40.398-474.607-16.311-644.613,0.194c-97.004,9.418-347.817-52.22-213.424-82.107
						c60.283-13.406,229.476-13.015,570.972-13.015S1670.317,1449.28,1743.482,1475.029z"/>
				</g>
			</g>
		</g>
	</g>
	<g>
		<g>
			<path style="fill:#FFFFFF;" d="M631.299,463.215c-16.51-9.747-39.733-22.497-57.513-2.54
				c-17.78,19.957,16.488,84.157,51.878,87.708c35.39,3.551,67.089-71.379,61.309-83.898
				C681.192,451.967,659.058,451.422,631.299,463.215z"/>
			<g>
				<g>
					<g>
						<path style="fill:#ED7372;" d="M685.941,466.237c4.309,9.495,4.159,19.014,0.439,28.675
							c-6.453,16.762-17.765,29.662-31.852,40.346c-5.716,4.336-12.037,7.754-18.295,11.24c-1.56,0.869-3.14,1.744-4.986,1.886
							c-0.807-2.528-2.512-4.077-4.879-5.325c-18.918-9.974-32.224-25.309-41.376-44.35c-3.907-8.129-4.906-16.772-2.28-25.631
							c2.258-7.617,8.438-12.545,16.408-13.159c5.133-0.396,9.908,0.778,14.663,2.557c6.255,2.34,11.678,6.213,17.567,9.223
							c2.35,1.201,4.195,1.451,6.347-0.341c6.347-5.282,13.928-8.072,21.825-9.82C668.879,459.467,678.028,459.666,685.941,466.237z
							"/>
					</g>
					<g>
						<path style="fill:#303030;" d="M565.551,478.482c0.063-19.101,11.708-30.564,30.334-30.336
							c4.15,0.051,8.18,0.753,12.174,1.806c7.342,1.935,14.174,5.065,20.397,9.344c2.76,1.898,4.873,1.813,7.732,0.291
							c7.473-3.976,15.458-6.537,23.898-7.627c4.87-0.629,9.663-0.316,14.369,0.945c10.624,2.849,17.264,11.473,17.785,22.875
							c0.317,6.928-1.167,13.535-3.754,19.886c-7.822,19.206-21.302,33.718-38.082,45.416c-5.591,3.897-11.63,6.986-17.874,9.75
							c-4.275,1.892-8.179,1.782-12.376-0.078c-5.752-2.55-11.261-5.496-16.342-9.192c-16.329-11.878-28.682-26.833-35.321-46.129
							C566.557,489.819,565.41,484.039,565.551,478.482z M570.904,479.412c0.051,0.767,0.027,2.395,0.292,3.975
							c0.414,2.465,0.819,4.963,1.582,7.333c8.4,26.08,25.562,44.196,50.398,55.346c2.544,1.142,4.791,0.796,7.183-0.254
							c22.619-9.931,39.861-25.642,51.172-47.681c2.882-5.615,4.64-11.623,5.292-17.918c1.144-11.061-4.394-19.746-14.295-22.179
							c-3.465-0.851-7.011-1.156-10.647-0.805c-9.644,0.93-18.423,4.347-26.714,9.1c-2.541,1.457-4.378,1.503-6.713-0.388
							c-4.902-3.971-10.565-6.714-16.418-8.986c-6.221-2.416-12.655-3.87-19.403-3.397c-11.199,0.784-18.599,7.174-21.065,18.087
							C571.05,473.941,570.922,476.241,570.904,479.412z"/>
					</g>
				</g>
			</g>
		</g>
		<g>
			<path style="fill:#FFFFFF;" d="M1531.268,546.878c-16.51-9.747-39.733-22.497-57.513-2.54
				c-17.78,19.957,16.488,84.157,51.878,87.708c35.39,3.551,67.089-71.379,61.309-83.898
				C1581.161,535.629,1559.027,535.085,1531.268,546.878z"/>
			<g>
				<g>
					<g>
						<path style="fill:#ED7372;" d="M1585.91,549.899c4.309,9.495,4.159,19.015,0.439,28.675
							c-6.453,16.762-17.765,29.662-31.852,40.346c-5.716,4.336-12.037,7.754-18.295,11.24c-1.56,0.869-3.14,1.744-4.986,1.886
							c-0.807-2.528-2.512-4.077-4.879-5.325c-18.918-9.974-32.224-25.309-41.376-44.35c-3.907-8.129-4.906-16.772-2.28-25.631
							c2.258-7.617,8.438-12.545,16.408-13.159c5.133-0.396,9.908,0.778,14.663,2.557c6.255,2.34,11.678,6.213,17.567,9.223
							c2.35,1.201,4.195,1.451,6.347-0.341c6.347-5.282,13.928-8.073,21.825-9.82C1568.848,543.13,1577.997,543.328,1585.91,549.899
							z"/>
					</g>
					<g>
						<path style="fill:#303030;" d="M1465.52,562.144c0.063-19.101,11.708-30.564,30.334-30.336
							c4.15,0.051,8.18,0.753,12.174,1.806c7.342,1.935,14.174,5.065,20.396,9.344c2.76,1.898,4.873,1.812,7.733,0.291
							c7.473-3.976,15.458-6.537,23.898-7.627c4.87-0.629,9.663-0.317,14.369,0.945c10.624,2.849,17.264,11.474,17.785,22.876
							c0.317,6.928-1.167,13.535-3.755,19.886c-7.821,19.206-21.302,33.718-38.082,45.416c-5.591,3.897-11.63,6.986-17.874,9.75
							c-4.276,1.892-8.179,1.783-12.376-0.078c-5.752-2.55-11.26-5.495-16.342-9.192c-16.329-11.878-28.682-26.833-35.321-46.129
							C1466.526,573.481,1465.379,567.701,1465.52,562.144z M1470.873,563.075c0.051,0.767,0.027,2.395,0.292,3.975
							c0.414,2.465,0.819,4.963,1.582,7.333c8.4,26.08,25.563,44.196,50.399,55.346c2.544,1.142,4.791,0.796,7.183-0.254
							c22.62-9.931,39.861-25.643,51.172-47.681c2.882-5.614,4.64-11.623,5.292-17.919c1.144-11.061-4.394-19.746-14.295-22.178
							c-3.465-0.851-7.011-1.156-10.647-0.805c-9.644,0.93-18.423,4.347-26.714,9.1c-2.541,1.457-4.378,1.503-6.714-0.388
							c-4.902-3.971-10.565-6.714-16.417-8.986c-6.221-2.416-12.654-3.87-19.403-3.397c-11.199,0.784-18.599,7.174-21.065,18.087
							C1471.019,557.603,1470.891,559.903,1470.873,563.075z"/>
					</g>
				</g>
			</g>
		</g>
		<g>
			<path style="fill:#FFFFFF;" d="M1286.442,199.138c-28.668-16.925-68.993-39.065-99.867-4.411
				c-30.874,34.654,28.629,146.13,90.081,152.297c61.452,6.167,116.493-123.944,106.457-145.681S1334.643,178.661,1286.442,199.138z
				"/>
			<g>
				<g>
					<g>
						<path style="fill:#ED7372;" d="M1381.323,204.386c7.482,16.487,7.221,33.017,0.763,49.791
							c-11.205,29.106-30.847,51.505-55.307,70.058c-9.925,7.528-20.901,13.464-31.768,19.516c-2.708,1.508-5.453,3.028-8.658,3.274
							c-1.402-4.39-4.362-7.079-8.472-9.246c-32.85-17.319-55.954-43.946-71.845-77.01c-6.785-14.115-8.519-29.123-3.958-44.506
							c3.92-13.226,14.651-21.783,28.492-22.85c8.913-0.687,17.204,1.351,25.461,4.44c10.861,4.063,20.278,10.789,30.503,16.015
							c4.081,2.086,7.284,2.519,11.021-0.592c11.02-9.172,24.185-14.017,37.898-17.051
							C1351.696,192.631,1367.584,192.975,1381.323,204.386z"/>
					</g>
					<g>
						<path style="fill:#303030;" d="M1172.277,225.648c0.109-33.168,20.329-53.071,52.672-52.676
							c7.206,0.088,14.204,1.307,21.139,3.135c12.748,3.36,24.612,8.796,35.417,16.225c4.792,3.295,8.461,3.147,13.427,0.505
							c12.976-6.903,26.841-11.351,41.496-13.243c8.457-1.092,16.78-0.55,24.95,1.641c18.447,4.947,29.977,19.923,30.882,39.721
							c0.55,12.03-2.027,23.502-6.519,34.53c-13.581,33.349-36.989,58.549-66.127,78.861c-9.708,6.767-20.194,12.131-31.037,16.93
							c-7.424,3.286-14.203,3.095-21.49-0.136c-9.989-4.428-19.553-9.543-28.376-15.961c-28.354-20.625-49.805-46.594-61.331-80.099
							C1174.023,245.332,1172.031,235.297,1172.277,225.648z M1181.571,227.263c0.088,1.333,0.047,4.16,0.508,6.902
							c0.719,4.28,1.422,8.617,2.747,12.733c14.586,45.286,44.387,76.743,87.512,96.103c4.418,1.984,8.318,1.383,12.473-0.442
							c39.277-17.244,69.214-44.526,88.856-82.794c5.004-9.749,8.057-20.183,9.188-31.114c1.986-19.206-7.63-34.287-24.823-38.511
							c-6.017-1.478-12.174-2.007-18.487-1.398c-16.747,1.615-31.99,7.549-46.386,15.801c-4.412,2.53-7.603,2.61-11.657-0.674
							c-8.512-6.896-18.344-11.658-28.507-15.604c-10.803-4.195-21.974-6.72-33.692-5.899
							c-19.447,1.362-32.296,12.457-36.577,31.406C1181.825,217.762,1181.603,221.757,1181.571,227.263z"/>
					</g>
				</g>
			</g>
		</g>
		<g>
			<path style="fill:#FFFFFF;" d="M1010.68,518.808c-28.668-16.925-68.993-39.065-99.867-4.41
				c-30.874,34.654,28.629,146.13,90.081,152.297c61.452,6.167,116.493-123.944,106.457-145.681
				C1097.315,499.275,1058.88,498.33,1010.68,518.808z"/>
			<g>
				<g>
					<g>
						<path style="fill:#ED7372;" d="M1105.56,524.055c7.482,16.487,7.221,33.017,0.763,49.791
							c-11.205,29.105-30.847,51.505-55.307,70.057c-9.925,7.528-20.901,13.464-31.768,19.516c-2.708,1.508-5.453,3.029-8.658,3.274
							c-1.402-4.39-4.362-7.079-8.472-9.246c-32.85-17.319-55.954-43.946-71.845-77.01c-6.785-14.116-8.519-29.123-3.958-44.506
							c3.92-13.226,14.651-21.783,28.492-22.85c8.913-0.687,17.204,1.351,25.461,4.44c10.861,4.063,20.278,10.789,30.503,16.015
							c4.081,2.086,7.284,2.519,11.021-0.591c11.02-9.172,24.185-14.017,37.898-17.051
							C1075.933,512.3,1091.821,512.644,1105.56,524.055z"/>
					</g>
					<g>
						<path style="fill:#303030;" d="M896.514,545.317c0.109-33.168,20.329-53.071,52.672-52.676
							c7.206,0.088,14.204,1.307,21.138,3.135c12.748,3.36,24.612,8.796,35.417,16.225c4.792,3.295,8.461,3.147,13.427,0.505
							c12.976-6.903,26.841-11.35,41.496-13.243c8.457-1.092,16.78-0.55,24.95,1.641c18.447,4.947,29.978,19.923,30.882,39.721
							c0.55,12.03-2.027,23.502-6.519,34.53c-13.581,33.349-36.989,58.549-66.127,78.861c-9.708,6.767-20.194,12.131-31.037,16.931
							c-7.424,3.286-14.203,3.095-21.49-0.136c-9.989-4.428-19.553-9.543-28.376-15.961c-28.354-20.625-49.805-46.594-61.331-80.099
							C898.261,565.002,896.269,554.966,896.514,545.317z M905.809,546.932c0.088,1.333,0.047,4.159,0.508,6.902
							c0.719,4.28,1.422,8.617,2.747,12.733c14.586,45.286,44.387,76.743,87.512,96.103c4.418,1.984,8.318,1.383,12.473-0.442
							c39.277-17.244,69.214-44.526,88.856-82.794c5.004-9.749,8.057-20.183,9.188-31.114c1.986-19.206-7.63-34.288-24.823-38.511
							c-6.017-1.478-12.174-2.007-18.487-1.398c-16.747,1.615-31.99,7.549-46.386,15.801c-4.413,2.53-7.603,2.61-11.657-0.674
							c-8.512-6.896-18.345-11.658-28.508-15.604c-10.803-4.195-21.973-6.72-33.692-5.899
							c-19.447,1.361-32.296,12.457-36.577,31.406C906.063,537.432,905.841,541.426,905.809,546.932z"/>
					</g>
				</g>
			</g>
		</g>
		<g>
			<path style="fill:#FFFFFF;" d="M840.184,1533.56c0,0-11.418,2.503-16.892-6.134c-5.474-8.637-1.251-40.04-1.251-40.04h18.143
				V1533.56z"/>
			<path style="fill:#FFFFFF;" d="M637.245,1416.533l-3.155,58.422c0,0-18.401-13.611-18.767-37.307
				c-13.035-2.346-15.609-5.947-13.448-22.023c2.161-16.076,6.744-28.43,6.222-42.497c-0.522-14.067-6.92-34.716,7.751-40.459
				c-0.525-16.315-0.236-320.92-0.236-320.92s-1.487-169.859-0.288-181.433c1.198-11.574,14.583-53.233,41.362-64.311
				s43.703-13.763,87.951-11.691s75.529-0.643,75.529-0.643s2.542-8.649,9.111-11.614c6.569-2.965,14.083-3.787,31.676-0.737
				c17.593,3.05,39.06,0.117,46.098-0.704c7.038-0.821,27.508-0.117,32.113,12.786c8.71,0.117,472.032,0.274,472.032,0.274
				s260.053-0.214,274.219,0.313c14.166,0.527,36.968,2.915,52.069,17.127c15.101,14.212-51.618,105.81-51.618,105.81
				l57.459,444.942c0,0,20.88-1.642,29.092,1.173s13.397,7.373,13.913,14.889c0.516,7.516-34.91,51.891-34.91,51.891
				l-696.328,92.404l-335.563-17.518L637.245,1416.533z"/>
			<g>
				<g>
					<path style="fill:#F9DC86;" d="M1772.658,1303.861c0.286,5.193,0.188,10.407,0.3,15.611c0.054,2.499-1.061,3.7-3.586,3.645
						c-2.001-0.043-4.005,0.012-6.007,0.018c-15.819,0.043-31.637,0.074-47.457,0.14c-2.392,0.01-4.811-0.229-7.167,0.434
						c-0.983-0.15-1.968-0.425-2.951-0.424c-18.628,0.017-37.257,0.065-55.886,0.113c-1.389,0.003-2.835-0.158-3.911,1.041
						c-25.834,0.013-51.666-0.001-77.499,0.068c-3.988,0.011-8.012-0.465-11.964,0.499c-0.979-0.171-1.957-0.48-2.936-0.48
						c-16.617,0.005-33.234,0.047-49.852,0.087c-1.39,0.004-2.833-0.153-3.914,1.036c-27.825,0.033-55.65,0.062-83.476,0.115
						c-0.786,0.001-1.572,0.258-2.358,0.393c-0.982-0.157-1.964-0.444-2.946-0.443c-17.823,0.009-35.646,0.05-53.469,0.092
						c-1.392,0.004-2.832-0.132-3.918,1.043c-25.034,0.011-50.068-0.021-75.102,0.069c-5.59,0.021-11.211-0.518-16.773,0.51
						c-0.978-0.172-1.955-0.485-2.934-0.485c-15.812,0.004-31.624,0.044-47.436,0.083c-1.39,0.004-2.832-0.147-3.919,1.031
						c-21.106-0.003-42.214-0.019-63.32-0.001c-8.243,0.007-16.485,0.089-24.728,0.134c-0.448-0.632-1.198-1.217-1.297-1.898
						c-1.982-13.52-1.978-27.043,0.441-40.503c1.48-8.235,3.791-16.35,3.089-24.851c1.652-2.813,0.893-5.906,0.92-8.872
						c0.034-3.687-0.134-3.732-3.741-3.038c-12.44,2.395-25.44,7.04-38.082,7.211c-23.116,0.313-45.807-2.88-68.918-4.191
						c-7.254-0.412-14.403-0.877-21.436-2.722c-4.465-1.172-9.013-2.067-13.411-3.443c-5.188-1.622-10.619-2.031-15.808-3.479
						c-4.769-1.33-11.241,0.224-10.661-4.726c0.216-1.841,0.721-8.608,0.629-10.381c-0.343-6.604-1.874-12.822-1.258-19.505
						c0.318-5.843,0.499-9.559,0.944-15.413c0.115-1.511,0.835-3.461,0.096-4.67c-2.623-4.286-2.381-5.453,1.179-8.778
						c1.657-1.548,3.625-2.538,5.659-3.395c16.86-7.097,33.979-13.515,51.747-17.925c23.021-5.715,46.473-8.569,70.154-9.662
						c16.234-0.748,32.462-1.62,48.695-2.373c5.141-0.238,5.604-0.343,5.135-5.561c-0.664-7.374-1.877-14.695-2.746-22.053
						c-0.657-5.566-2.127-11.269-1.478-16.702c1.001-8.387,0.858-16.807,1.655-25.195c1.371-14.427,4.519-28.481,6.925-42.693
						c1.37-8.089,4.237-15.908,4.368-24.217c1.201-0.981,1.465-2.481,1.617-3.804c0.332-2.895,3.317-6.354,1.005-8.381
						c-1.881-1.649-5.674-0.051-8.58,0.643c-7.842,1.877-15.322,4.82-22.854,7.619c-12.628,4.693-25.298,9.377-37.107,15.877
						c-25.658,14.121-48.716,31.92-70.439,51.443c-19.578,17.596-35.041,38.678-49.759,60.31c-2.265,3.329-4.582,4.89-8.471,3.599
						c-0.512-2.107-1.937-4.254-0.542-6.382c2.566-3.913,3.277-8.548,5.114-12.655c6.539-14.618,10.418-29.94,13.275-45.562
						c1.946-10.642,3.881-21.33,4.892-32.085c0.997-10.604,1.058-21.369,0.027-31.969c-1.106-11.37-3.282-22.563-8.845-32.925
						c-5.259-9.795-11.349-18.957-18.281-27.589c-3.159-3.933-5.596-7.81-3.125-13.129c0.625-1.344,0.243-3.174,0.256-4.781
						c0.44-54.323-0.898-108.635-1.174-162.953c-0.002-0.403-0.029-0.805-0.045-1.207c2.406-0.086,4.812-0.249,7.217-0.248
						c99.499,0.022,198.997,0.059,298.496,0.087c2.008,0.001,4.017-0.086,6.025-0.131c1.132,1.102,2.568,0.957,3.964,0.958
						c11.431,0.006,22.861,0.008,34.291,0.008c1.397,0,2.829,0.136,3.987-0.914c6.642,0.044,13.284,0.125,19.926,0.127
						c133.272,0.034,266.545,0.092,399.817,0.01c8.176-0.005,15.342,1.659,21.69,7.073c3.334,2.843,7.358,4.872,11.052,7.298
						c4.086,2.684,7.73,5.821,9.839,10.364c0.75,1.617,1.768,2.654,3.629,2.645c13.286,37.979,9.293,54.483,9.293,62.34
						C1768.442,943.274,1772.496,1300.915,1772.658,1303.861z"/>
					<path style="fill:#6D92F5;" d="M1784.732,1354.947c1.492-4.614,4.563-6.145,3.935-11.034c-0.785-6.1-4.191-9.048-10.262-9.025
						c-2.21,0.008-652.628,6.275-653.664,3.872c-1.746-3.306-1.811-7.005-2.46-10.569c-0.448-0.633-1.198-1.218-1.297-1.899
						c-1.982-13.52-4.809-27.043-2.391-40.503c1.48-8.235,1.868-15.716,1.167-24.216c-1.587,0.202,1.523-0.429,0,0
						c-24.556,6.93-49.436,9.846-74.978,7.38c-21.621-2.087-43.003-5.205-63.929-11.126c-7.54-2.133-14.959-4.63-22.07-7.932
						c-4.31-2.001-4.501-2.781-3.937-7.418c0.973-7.995,0.489-16.046,0.767-24.068c0.111-3.182-0.664-21.066-0.219-26.919
						c0.115-1.512-0.867-2.571-1.607-3.78c-2.623-4.286-2.381-5.453,1.179-8.778c1.657-1.548,3.625-2.538,5.659-3.395
						c16.86-7.097,33.98-13.515,51.747-17.925c23.021-5.714,46.473-8.57,70.154-9.662c16.234-0.748,32.462-1.62,48.695-2.373
						c5.14-0.238,5.604-0.343,5.135-5.561c-0.664-7.374-1.877-14.695-2.746-22.053c-0.657-5.566-2.127-11.269-1.478-16.702
						c1.001-8.387,0.858-16.807,1.655-25.195c1.371-14.427,4.519-28.481,6.925-42.693c1.37-8.089,4.237-15.908,4.37-24.217
						c-23.032,5.729-44.292,15.635-64.709,27.508c-34.361,19.981-64.888,44.764-91.845,73.92
						c-12.033,13.015-23.362,26.64-32.153,42.145c-2.947,5.199-8.059,5.772-12.943,5.95c-10.252,0.375-20.528,0.179-30.793,0.092
						c-19.531-0.165-39.042,0.568-58.549,1.328c-7.422,0.289-14.854,1.009-22.211,2.032c-7.235,1.006-9.4,3.575-10.884,10.868
						c-0.688,3.381-0.913,6.774-0.875,10.201c0.297,26.968,0.607,53.936,0.871,80.903c0.016,1.659-0.187,3.306,1.685,4.091
						c1.852,0.775,2.378-0.924,3.277-1.893c1.383-1.493,3.029-2.116,4.837-0.955c1.977,1.27,2.3,3.18,1.452,5.3
						c-0.298,0.743-0.626,1.494-1.064,2.16c-6.452,9.835-66.232,58.933-78.78,159.5c-0.365,4.104-0.435,8.224-0.37,12.349
						c1.664,4.978,6.003,7.935,9.043,11.867c5.279,6.827,12.579,11.117,20.083,15.025c11.055,5.756,22.1,11.569,34.477,14.098
						c3.778,0.771,6.635,2.62,7.88,6.459c1.259-1.184,2.069-2.846,3.778-3.553c0.886-1.448,1.949-2.343,3.67-1.169
						c1.182-0.027,1.989,0.488,2.362,1.632l0.426,0.14c0,0-0.095,0.39-0.098,0.388c1.719,6.076,2.021,41.873,2.378,43.542
						l0.316-0.11c0,0,0.127,0.339,0.123,0.338c2.217,0.065,4.44,0.129,6.662,0.194c3.935-1.461,8.002-0.501,12.007-0.646
						c0.94-0.243,1.88-0.487,2.82-0.733l0.141-0.312c0,0,0.198,0.186,0.194,0.188c1.006-0.655,2.11-1.007,3.319-1.018
						c0.413-0.62,0.895-0.88,1.536-0.293c2.644-1.086,5.297-1.159,7.958-0.05c1.194-0.611,2.27-0.346,3.277,0.439
						c1.29-0.131,2.541-0.042,3.681,0.659c1.672-0.507,3.269-0.406,4.754,0.59c1.753-0.181,3.488-0.202,5.133,0.581
						c1.613-0.555,3.127-0.342,4.547,0.588c2.228-0.162,4.453-0.295,6.509,0.856l0.336-0.184c0,0,0.259,0.352,0.258,0.352
						c1.469-0.019,2.895,0.156,4.172,0.97l0.408-0.153c0,0,0.292,0.384,0.292,0.384c1.573-0.019,3.02,0.428,4.386,1.182l0.015-0.185
						c0,0,0.097,0.234,0.094,0.234c1.43,0.05,2.856,0.122,4.139,0.877c2.415-0.587,4.835-0.569,7.261-0.076
						c1.263-0.711,2.653-0.785,4.055-0.798l0.124-0.28c0,0,0.118,0.197,0.115,0.2c1.131-0.378,2.266-0.756,3.401-1.136l0.124-0.337
						c0,0,0.268,0.143,0.264,0.147c0.663-0.339,1.329-0.681,1.996-1.024l0.163-0.412c0,0,0.416,0.016,0.414,0.019
						c7.394-5.257,10.184-12.58,9.627-21.423c-0.05-0.79,0.13-1.594,0.204-2.391c-1.018-2.184-0.853-4.381-0.065-6.584
						c-1.308-2.738-2.315-5.537-2.353-8.644c-0.06-5.086,1.245-7.353,5.924-9.357c3.691-1.581,7.433-3.053,11.203-4.433
						c8.915-3.263,14.985-9.948,20.442-17.218c4.256-5.67,6.92-12.218,9.025-18.978c2.29-7.352,2.569-5.988,8.389-5.995
						c75.064-0.087,150.129-0.143,225.193-0.206c19.521-0.016,39.045,0.196,58.562-0.073c145.269-2.002,290.547-0.368,435.816-1.376
						c16.262-0.113,32.551-0.409,48.826-0.672c2.398-0.039,4.84-0.314,7.175,0.591c1.855-1.509,2.714-4.338,5.727-4.308l0.19-0.334
						c0,0,0.264,0.184,0.261,0.187c0.167-0.104,0.331-0.224,0.51-0.312c5.86-2.914,10.818-6.392,9.288-14.183
						c-0.142-0.72,0.208-1.598,0.504-2.333c1.317-3.266-1.392-6.382-1.509-9.803c-0.234-6.851,1.441-13.877-0.783-20.376
						c-2.161-6.315-4.363-14.586-1.526-20.833C1782.969,1362.177,1783.748,1357.991,1784.732,1354.947z M1002.804,1340.68
						c-6.612,0.205-13.229,0.234-19.841,0.448c-2.341,0.076-6.352-0.667-6.911-3.045c-0.74-3.145,0.128-5.907-1.305-8.758
						c-3.088-0.79-4.075-3.745-4.282-5.981c-0.514-5.563-4.073-9.454-6.424-14.006c-0.824-1.597-1.886-3.076-2.633-4.704
						c-1.34-2.922-0.573-6.079,1.635-7.404c2.143-1.285,4.508-0.494,6.52,2.459c2.025,2.971,3.942,6.024,5.747,9.134
						c3.468,5.975,7.778,11.096,13.757,14.741c2.35,1.432,4.918,2.761,5.899,5.672c3.856,3.448,7.712,6.897,11.566,10.343
						C1005.64,1341.403,1004.046,1340.642,1002.804,1340.68z"/>
					<path style="fill:#F9DC86;" d="M630.411,919.631c0-2.023,0.001-4.044,0.001-6.066c1.533-1.718,0.938-3.819,0.941-5.763
						c0.042-22.059,0.036-44.119,0.026-66.179c-0.001-1.792,0.241-3.62-0.532-5.34c0.311-7.01,3.022-13.476,4.695-20.169
						c0.798-3.191,4.198-5.279,4.508-8.859c1.902-0.991,2.425-2.779,2.725-4.699c2.226-1.492,3.452-3.861,4.819-5.988
						c5.741-8.938,14.675-14.182,22.892-20.272c2.779-0.708,5.45-1.622,7.418-3.881c3.907-1.304,7.814-2.608,11.721-3.911
						c1.781,0.28,3.335-0.367,4.844-1.192c12.109-2.255,24.338-2.497,36.616-2.44c28.587,0.134,57.175,0.058,85.762,0.067
						c0.402,0,0.805-0.005,1.208,0.001c5.487,0.084,6.115,0.472,5.351,5.875c-1.361,9.629-0.741,19.282-0.933,28.924
						c-0.108,5.439,0.649,10.819,1.039,16.225c0.652,9.049-0.247,18.061-1.747,27.008c-0.702,4.188-0.574,8.42-0.41,12.645
						c-0.983,0.779-1.008,1.575-0.039,2.386c0.046,15.783-0.184,31.575,0.277,47.346c0.174,5.945,1.377,11.876,0.887,17.884
						c-2.237,1.834-4.586,3.37-7.656,2.189c-5.676-2.184-10.062,0.42-14.27,3.754c-1.328,0.027-2.358,0.753-3.401,1.448
						c-14.007,6.26-27.412,13.604-38.288,24.58c-6.802,6.866-12.443,14.712-14.641,24.545c-1.535,6.866-2.963,13.743-3.678,20.734
						c-0.306,2.99-1.7,5.8-1.2,8.915c2.165,13.473,4.345,26.769,10.89,39.21c6.266,11.911,11.676,24.286,18.846,35.722
						c5.442,8.679,12.175,16.479,17.273,25.418c4.005,7.022,9.186,13.166,15.066,18.745c4.087,3.879,8.037,7.913,11.875,12.038
						c4.04,4.34,4.251,7.304,1.243,12.501c-0.702,1.212-1.499,2.389-2.392,3.466c-2.4,2.896-3.736,6.3-3.985,9.932
						c-0.479,7.009-1.24,13.986-1.433,21.035c-0.439,16.12,1.606,32.135,1.489,48.232c-0.051,7.021-0.228,14.044,0.713,21.082
						c0.449,3.361,1.646,4.842,4.7,5.93c6.061,2.156,7.651,7.479,3.105,12.103c-5.152,5.24-8.85,11.438-13.094,17.267
						c-3.412,4.685-7.692,8.74-10.295,14.014c-0.35,0.423-0.699,0.846-1.049,1.269c-2.533,2.453-4.96,4.982-6.055,8.463
						c-1.206,1.978-3.355,3.371-3.666,5.907c-1.389,0.861-2.249,2.076-2.477,3.712c-1.813,3.096-4.491,3.922-8.032,3.856
						c-9.995-0.188-19.997-0.016-29.996,0.045c-2.19,0.012-4.408-0.207-6.547,0.5c-10.741-1.052-21.501-0.358-32.253-0.301
						c-0.518,0.003-1.032,0.532-1.548,0.816c-21.115,0.025-42.23,0.049-63.345,0.073c-1.408,0.002-2.818-0.052-4.223,0.018
						c-2.506,0.124-3.743-0.928-3.64-3.524c0.08-2.008,0.006-4.022,0.006-6.033c0.009-109.405,0.019-218.812,0.022-328.217
						c0-2.211-0.088-4.421-0.135-6.632c1.243-1.199,1.245-2.398,0-3.598c0-8.464,0-16.929,0.001-25.393
						c1.541-4.42,1.541-8.84,0-13.261c0-2.022,0-4.044,0-6.067c1.458-2.809,1.459-5.619,0-8.429c0-2.022-0.001-4.044-0.001-6.066
						C631.655,922.029,631.656,920.831,630.411,919.631z"/>
					<path style="fill:#6D92F5;" d="M939.212,765.225c0.016,0.402,0.043,0.804,0.045,1.207c0.276,54.318,1.615,108.63,1.174,162.953
						c-0.013,1.608,0.368,3.437-0.256,4.781c-2.471,5.319-0.034,9.195,3.125,13.129c6.933,8.632,13.023,17.794,18.281,27.589
						c5.563,10.362,7.739,21.555,8.845,32.925c1.03,10.6,0.969,21.366-0.027,31.969c-1.011,10.755-2.946,21.443-4.892,32.085
						c-2.857,15.623-6.736,30.945-13.275,45.562c-1.837,4.107-2.548,8.741-5.114,12.655c-1.395,2.128,0.03,4.275,0.542,6.383
						c-1.927,2.797-4.648,5.349-5.59,8.444c-1.344,4.411-4.008,4.72-7.724,4.672c-21.724-0.28-43.441-0.639-65.161,0.657
						c-11.84,0.706-23.736,0.43-35.596,0.879c-2.706,0.103-3.988-1.157-5.447-2.909c-22.958-27.568-44.081-56.42-61.663-87.765
						c-10.432-18.597-16.779-38.276-15.61-59.864c0.787-14.543,5.558-27.416,16.109-37.94c4.733-4.72,10.28-8.335,15.343-12.589
						c4.41-2.152,8.819-4.303,13.228-6.455c0.709,0.016,1.249-0.289,1.646-0.866c0.641-0.16,1.281-0.319,1.922-0.479
						c0.991,0.161,1.789-0.187,2.436-0.928c10.534-2.575,21.089-5.018,31.868-6.401c20.83-2.673,41.689-2.711,62.593-1.097
						c10.074,0.779,19.912,2.585,29.49,5.825c2.221,0.752,4.519,0.831,5.889-1.49c1.133-1.92,1.021-3.862-1.135-5.209
						c0.001,0-0.08-0.392-0.08-0.392l-0.341,0.087c-0.632-0.27-1.264-0.54-1.894-0.81c-0.406-0.724-0.981-0.981-1.773-0.641
						c-0.888-0.229-1.776-0.459-2.664-0.689c-0.2-0.46-0.508-0.58-0.923-0.358c-0.886-0.593-1.873-0.798-2.922-0.768
						c-0.499-0.668-1.106-0.966-1.918-0.556c-0.999-0.21-1.999-0.419-2.996-0.629c-0.454-0.626-0.982-0.901-1.679-0.343
						c-1.654-0.866-3.429-0.987-5.245-0.858c-0.726-0.655-1.511-0.851-2.39-0.303c-0.982-0.327-1.965-0.655-2.945-0.982
						c0.003,0.001-0.081-0.352-0.081-0.352l-0.298,0.105c-0.657-0.312-1.315-0.625-1.97-0.939c0.002,0-0.108-0.272-0.108-0.272
						l-0.091,0.199c-2.122-1.078-4.395-1.278-6.724-1.153c-0.554-0.606-1.156-0.917-1.905-0.302
						c-2.481-0.966-5.058-1.006-7.662-0.797c-1.808-1.139-3.716-1.252-5.703-0.553c-8.687-1.505-17.455-0.756-26.184-0.824
						c-5.144-0.041-10.35-0.485-15.441,0.793c-2.268-0.471-4.349-1.038-3.78-4.171c0.212-1.167,0.039-2.405,0.037-3.61
						c-0.076-50.826-0.153-101.65-0.229-152.475c0.185-0.972,0.37-1.945,0.555-2.915c0,0.003,0.263-0.088,0.263-0.088l-0.193-0.072
						c4.194-7.376,11.31-7.644,18.398-7.067c6.965,0.567,13.844,2.14,20.803,2.845c10.429,1.056,20.786-0.081,31.12-1.606
						c6.574-0.971,13.227-1.115,19.682,0.759c6.186,1.796,12.213,4.03,15.139,10.585c0.032,0.736,0.402,1.107,1.153,1.064
						L939.212,765.225z"/>
					<path style="fill:#F9DC86;" d="M940.785,1503.737c-1.308-2.738-2.315-5.537-2.353-8.644c-0.061-5.086,1.245-7.353,5.924-9.357
						c3.691-1.581,7.433-3.053,11.203-4.433c8.915-3.263,14.985-9.948,20.442-17.218c4.256-5.67,6.92-12.218,9.025-18.978
						c2.29-7.352,2.569-5.988,8.389-5.995c75.064-0.087,150.129-0.143,225.193-0.206c19.521-0.016,39.045,0.196,58.562-0.073
						c145.269-2.002,290.547-0.368,435.816-1.376c16.262-0.113,32.551-0.409,48.826-0.672c2.398-0.039,4.84-0.974,7.175-0.069
						c-3.672,17.39-4.288,24.281-19.604,46.603c-15.317,22.322-44.129,27.139-59.748,28.442c-8.237-0.035-22.263-0.003-30.5,0
						c-70.131,0.027-126.945-2.46-197.075-2.407c-2.6,0.003-5.23-0.309-7.79,0.448c-1.736-0.723-3.567-0.496-5.364-0.495
						c-85.257,0.044-170.515,0.096-255.772,0.179c-1.94,0.002-4.061-0.628-5.745,1.003c-2.409-0.063-4.818-0.183-7.228-0.181
						c-73.975,0.051-147.95,0.112-221.925,0.188c-2.995,0.003-5.984-0.223-8.935,0.853c-2.379,0.867-4.763,0.322-6.855-1.197
						C941.44,1508.13,942.96,1505.456,940.785,1503.737z"/>
					<path style="fill:#6D92F5;" d="M768.373,1341.033c-8.382,0-135.763,1.513-140.712,1.794c-0.027,0.002-0.054,0.004-0.081,0.004
						c-4.176,0.217-7.536,3.475-7.737,7.652c-0.053,1.094-0.115,2.254-0.172,3.394c1.324,5.604,3.694,11.333,4.281,16.552
						c0.525,4.672,0.565,9.358-0.137,14.02c-2.632,17.472-13.686,32.288-4.818,50.14c0.238,0.478,0.359,0.946,0.429,1.405
						c1.149,1.132,2.403,2.123,3.986,2.662c0.245-0.303,0.533-0.35,0.862-0.14c1.165-0.706,2.43-0.852,3.755-0.659
						c2.102-2.005,2.596-0.061,3.309,1.347c12.056,0.623,24.047-0.853,36.02-1.656c25.475-1.708,50.951-0.343,76.414-1.04
						c0.33-0.009,0.661-0.019,0.992-0.028c1.581-1.82,2.402-2.764,3.983-4.584c-1.651-16.288-1.789-32.485,2.484-48.419
						c-0.133-1.379,0.072-2.65,1.169-3.634c0.486-3.419,1.71-6.58,3.246-9.654c4.045-8.099,8.068-16.208,12.022-24.351
						C768.314,1344.508,769.753,1343.239,768.373,1341.033z"/>
					<path style="fill:#F9DC86;" d="M631.337,1439.204c12.057,0.623,24.047-0.853,36.02-1.656
						c25.475-1.708,50.951-0.343,76.414-1.04c1.605-0.043,3.21-0.098,4.816-0.147c1.1,2.785,1.427,5.888,3.441,8.291
						c1.664,4.978,6.003,7.935,9.043,11.867c5.279,6.827,12.579,11.117,20.083,15.025c11.055,5.756,22.1,11.569,34.477,14.098
						c3.778,0.771,6.635,2.62,7.88,6.459c0.433,2.925,1.058,5.835,1.264,8.776c0.6,8.583-1.184,10.847-9.509,12.545
						c-1.627-0.566-3.24-0.588-4.833,0.126c-3.65-0.592-7.113-2.261-10.929-1.895c-1.578-1.462-3.152-1.483-4.722,0.012
						c-1.261-0.147-2.486-0.023-3.658,0.485c-0.998-0.434-1.791-0.185-2.387,0.716c-3.246,0.072-6.513-0.261-9.718,0.533
						c-4.831-0.728-9.661-0.697-14.49,0.019c-0.783-0.149-1.565-0.427-2.349-0.429c-22.187-0.061-44.373-0.094-66.56-0.133
						c-1.45-1.432-3.097-1.154-4.781-0.55c-1.57-0.714-3.228-0.723-4.9-0.605c-0.591-0.886-1.365-1.186-2.371-0.741
						c-5.177-1.849-10.353-3.699-15.531-5.547c-0.889-1.384-33.604-24.91-36.072-26.356c-1.265-0.742-0.657-12.389-0.645-14.312
						C631.377,1456.232,631.34,1447.718,631.337,1439.204z"/>
					<path style="fill:#F9DC86;" d="M974.747,1329.325c-3.088-0.79-4.075-3.745-4.282-5.981c-0.514-5.563-4.073-9.454-6.424-14.006
						c-0.824-1.596-1.886-3.076-2.633-4.704c-1.339-2.922-0.573-6.079,1.635-7.404c2.143-1.285,4.508-0.494,6.521,2.459
						c2.024,2.971,3.941,6.024,5.747,9.134c3.468,5.975,7.778,11.096,13.756,14.741c2.35,1.432,4.918,2.761,5.9,5.672
						C988.228,1329.266,981.488,1329.296,974.747,1329.325z"/>
				</g>
				<g>
					<path style="fill:#303030;" d="M1341.187,924.787c-1.7-1.054-3.552-0.654-5.326-0.601c-13.682,0.411-27.362,0.849-41.04,1.324
						c-5.34,0.185-5.312,0.238-5.625,5.362c-0.123,2-0.101,4.08-0.672,5.965c-0.832,2.748-2.955,4.34-5.904,4.251
						c-2.929-0.088-5.223-1.706-5.668-4.537c-0.938-5.975-1.016-12.057,0.36-17.977c0.668-2.87,2.86-4.833,5.947-5.369
						c1.381-0.24,2.79-0.392,4.191-0.434c18.107-0.556,36.214-1.092,54.323-1.61c2.009-0.057,4.048-0.172,6.031,0.074
						c4.916,0.611,7.978,4.156,7.654,9.102c-0.491,7.519-2.791,14.607-5.892,21.419c-13.17,28.939-44.156,46.512-75.175,42.693
						c-32.862-4.045-58.581-28.383-64.191-60.745c-8.144-46.975,30.254-89.464,77.785-85.851
						c18.12,1.378,33.777,8.581,46.737,21.427c1.141,1.132,2.276,2.3,3.221,3.592c2.44,3.33,2.271,6.989-0.301,9.244
						c-2.563,2.248-6.051,1.955-9.222-0.846c-1.053-0.93-1.952-2.033-2.977-2.997c-17.836-16.762-38.709-22.123-61.889-14.478
						c-22.969,7.576-36.673,24.226-40.851,48.016c-5.416,30.84,15.278,61.403,45.785,68.5c31.002,7.211,62.489-10.42,71.901-40.289
						C1340.922,928.338,1341.724,926.65,1341.187,924.787z"/>
					<path style="fill:#303030;" d="M1616.682,1053.51c22.92,0.45,44.53,7.985,62.315,24.77
						c37.554,35.442,30.621,91.856-14.256,117.405c-16.966,9.659-35.276,13.128-54.613,11.419c-7.042-0.622-9.471-5.781-5.15-11.193
						c1.784-2.232,1.621-4.418,1.591-6.757c-0.338-26.141-0.739-52.28-1.086-78.421c-0.165-12.468-0.257-24.936-0.375-37.404
						c-0.031-3.284,0.287-6.424-4.671-6.701c-2.776-0.156-4.298-2.791-4.402-5.711c-0.097-2.753,1.751-5.112,4.924-6.089
						C1605.641,1053.388,1610.513,1053.738,1616.682,1053.51z M1619.53,1189.685c0.085,4.755,0.322,5.038,3.963,4.832
						c18.734-1.06,35.333-7.381,48.9-20.594c21.109-20.559,23.999-51.185,7.191-75.364c-10.425-14.998-24.922-24.227-42.302-29.183
						c-4.252-1.212-8.594-2.075-13.011-2.46c-6.43-0.56-6.559-0.429-6.463,5.777c0.004,0.201,0.019,0.402,0.019,0.603
						C1617.828,1092.392,1619.175,1169.986,1619.53,1189.685z"/>
					<path style="fill:#303030;" d="M1505.506,1144.809c-0.962,2.437-0.633,4.265-0.62,6.052
						c0.107,15.094,0.263,30.186,0.375,45.279c0.013,1.806,0.058,3.65-0.268,5.41c-0.573,3.092-2.983,5.113-5.799,5.207
						c-2.806,0.092-5.413-1.801-6.115-4.832c-0.449-1.938-0.525-3.989-0.555-5.993c-0.203-13.482-0.344-26.964-0.514-40.447
						c-0.369-29.178-0.744-58.356-1.11-87.534c-0.022-1.81-0.117-3.634,0.049-5.43c0.446-4.84,3.546-8.302,8.429-8.771
						c15.91-1.531,31.345,0.248,45.822,7.507c4.702,2.358,8.924,5.443,12.544,9.309c9.723,10.389,11.734,24.119,5.31,36.858
						c-4.964,9.844-12.845,16.86-22.028,22.635c-5.068,3.187-10.612,5.472-16.031,8.032c1.143,2.299,2.974,2.854,4.415,3.858
						c18.115,12.63,32.747,28.452,43.725,47.627c1.398,2.442,2.874,4.875,3.544,7.639c0.727,3.005-0.598,5.94-3.059,7.187
						c-2.518,1.275-5.781,0.739-7.668-1.61c-1.242-1.546-2.07-3.429-3.045-5.184c-10.342-18.639-24.295-33.985-42.04-45.803
						C1516.221,1148.712,1511.42,1145.756,1505.506,1144.809z M1505.912,1129.865c14.897-3.135,28.988-8.487,39.899-20.018
						c12.791-13.517,10.185-28.209-6.245-36.986c-9.264-4.949-19.359-6.396-29.635-6.917c-5.801-0.294-6.133,0.088-6.062,5.93
						c0.215,17.861,0.505,35.72,0.784,53.581C1504.675,1126.828,1504.441,1128.286,1505.912,1129.865z"/>
					<path style="fill:#303030;" d="M1274.892,1056.913c24.293,0.735,45.233,11.583,60.446,33.204
						c1.385,1.969,2.78,3.979,3.426,6.35c0.797,2.928-0.38,5.992-2.896,7.236c-2.584,1.278-5.166,1.064-7.242-1.008
						c-1.262-1.259-2.22-2.844-3.213-4.348c-14.367-21.747-39.962-32.527-64.97-27.345c-25.932,5.375-45.121,24.814-49.886,50.537
						c-5.861,31.635,15.802,63.563,47.781,69.933c24.564,4.894,45.288-2.276,62.049-20.894c1.073-1.193,2.09-2.489,3.352-3.449
						c2.451-1.865,5.645-1.743,7.795,0.095c2.302,1.968,2.568,4.51,1.64,7.148c-0.453,1.286-1.384,2.44-2.238,3.546
						c-17.806,23.046-51.111,33.47-79.99,25.06c-29.391-8.558-50.79-33.849-53.662-63.422
						c-3.732-38.419,22.175-73.375,59.967-81.043C1262.419,1057.466,1267.618,1057.187,1274.892,1056.913z"/>
					<path style="fill:#303030;" d="M1355.099,1201.645c0.287-0.994,0.718-2.747,1.3-4.448
						c14.965-43.736,29.943-87.468,44.935-131.196c0.52-1.516,1.078-3.042,1.83-4.451c1.312-2.459,3.327-4.063,6.251-4.009
						c2.96,0.055,4.802,1.832,5.961,4.374c0.58,1.276,0.985,2.635,1.422,3.972c13.923,42.602,27.842,85.204,41.753,127.81
						c0.499,1.529,1.062,3.06,1.325,4.636c0.556,3.324-1.145,6.327-3.951,7.312c-2.965,1.041-5.999-0.062-7.664-3.093
						c-0.958-1.742-1.571-3.693-2.194-5.597c-4.939-15.091-9.829-30.197-14.763-45.288c-1.687-5.159-1.725-5.178-7.096-5.113
						c-10.66,0.13-21.32,0.237-31.977,0.478c-5.096,0.115-5.149,0.224-6.792,4.988c-5.636,16.34-11.22,32.698-16.85,49.04
						c-0.587,1.703-1.156,3.463-2.076,4.991c-1.684,2.799-4.525,3.841-7.211,2.957
						C1356.544,1208.101,1354.992,1205.685,1355.099,1201.645z M1409.508,1085.005c-1,1.113-1.388,1.363-1.508,1.705
						c-5.083,14.59-10.186,29.173-15.17,43.797c-1.078,3.164-0.575,3.645,3.189,3.6c8.434-0.102,16.868-0.266,25.302-0.458
						c1.113-0.026,2.46,0.333,3.489-1.732C1419.886,1116.818,1414.802,1101.233,1409.508,1085.005z"/>
					<path style="fill:#303030;" d="M1466.857,911.762c0-21.124,0.006-42.249-0.008-63.373c-0.002-2.421-0.14-4.855,0.985-7.097
						c2.084-4.156,5.282-6.219,10.132-6.131c11.666,0.21,23.337,0.139,35.006,0.171c12.071,0.033,24.142,0.044,36.213,0.085
						c2.002,0.007,4.02-0.144,5.973,0.56c3.128,1.129,4.739,3.305,4.577,6.302c-0.156,2.906-2.077,5.216-5.229,5.777
						c-1.959,0.349-4.006,0.272-6.014,0.269c-20.32-0.036-40.64-0.097-60.96-0.149c-1.408-0.003-2.819,0.06-4.225-0.003
						c-2.581-0.118-3.611,1.117-3.557,3.634c0.073,3.418-0.005,6.84-0.013,10.26c-0.028,11.668-0.099,23.338-0.057,35.006
						c0.016,4.607,0.131,4.727,4.779,4.749c14.082,0.068,28.166,0.027,42.249,0.047c2.203,0.003,4.417-0.157,6.567,0.624
						c2.749,0.998,4.352,2.805,4.404,5.801c0.052,2.935-1.75,5.397-4.816,6.102c-1.736,0.399-3.593,0.363-5.395,0.365
						c-14.083,0.02-28.167-0.024-42.249,0.011c-5.542,0.014-5.599,0.083-5.631,5.777c-0.102,18.106-0.153,36.213-0.24,54.32
						c-0.009,2.003,0.109,4.009-0.558,5.975c-0.955,2.809-2.899,4.32-5.789,4.495c-2.801,0.171-5.48-1.825-6.145-4.808
						c-0.431-1.932-0.381-3.994-0.384-5.998c-0.024-20.923-0.014-41.846-0.014-62.771
						C1466.592,911.762,1466.725,911.762,1466.857,911.762z"/>
					<path style="fill:#303030;" d="M1417.58,912.064c0,18.318-0.001,36.635,0.001,54.954c0,1.006-0.021,2.015,0.03,3.019
						c0.208,4.142,0.215,4.21,4.62,4.303c4.627,0.099,9.259,0.062,13.889,0.062c1.824,0,3.627,0.11,5.332,0.824
						c2.683,1.125,4.248,3.115,4.079,6.061c-0.169,2.931-1.953,4.849-4.702,5.607c-1.518,0.419-3.189,0.391-4.791,0.388
						c-17.513-0.021-35.026-0.073-52.54-0.132c-1.804-0.005-3.624,0.089-5.356-0.632c-2.714-1.13-4.199-3.192-4.081-6.079
						c0.105-2.606,1.524-4.486,4.048-5.49c1.746-0.695,3.544-0.66,5.352-0.66c5.234-0.001,10.468,0.057,15.702,0.015
						c5.426-0.043,5.431-0.082,5.541-5.246c0.026-1.208,0.009-2.415,0.002-3.624c-0.207-36.435-0.414-72.87-0.624-109.305
						c-0.007-1.208-0.068-2.415-0.051-3.622c0.034-2.324-1.201-3.16-3.39-3.147c-4.428,0.028-8.857-0.034-13.285-0.055
						c-1.812-0.009-3.628,0.073-5.434-0.025c-4.929-0.269-7.772-2.814-7.608-6.711c0.155-3.649,2.917-6.145,7.528-6.149
						c19.726-0.018,39.452,0.048,59.177,0.229c4.705,0.043,7.263,2.527,7.312,6.313c0.052,3.974-2.708,6.397-7.734,6.486
						c-5.433,0.096-10.87-0.019-16.305-0.026c-7.334-0.01-7.364-0.003-7.341,7.081c0.054,16.507,0.142,33.013,0.214,49.52
						c0.009,2.013,0.001,4.026,0.001,6.039C1417.305,912.064,1417.442,912.064,1417.58,912.064z"/>
					<path style="fill:#303030;" d="M1626.065,914.779c0-19.309,0-38.616,0.001-57.924c0-1.409,0.049-2.817,0-4.224
						c-0.151-4.319-0.165-4.456-4.416-4.49c-10.458-0.087-20.916-0.026-31.375-0.048c-2-0.004-4.027,0.186-5.961-0.59
						c-2.691-1.079-4.279-2.969-4.243-5.947c0.036-2.984,1.681-4.977,4.409-5.807c1.688-0.513,3.565-0.553,5.357-0.555
						c28.761-0.031,57.521-0.025,86.282-0.015c1.802,0.001,3.63-0.135,5.365,0.554c2.675,1.062,4.384,2.97,4.381,5.893
						c-0.003,2.913-1.669,4.838-4.365,5.895c-1.939,0.761-3.964,0.569-5.963,0.573c-9.855,0.021-19.71,0-29.565,0.013
						c-6.934,0.009-6.962,0.023-6.983,6.831c-0.125,39.219-0.23,78.438-0.363,117.656c-0.007,2.206,0.026,4.448-0.34,6.609
						c-0.663,3.907-3.112,5.987-6.448,5.867c-3.335-0.12-5.568-2.42-5.982-6.338c-0.167-1.593-0.088-3.215-0.089-4.823
						c-0.004-19.71-0.003-39.42-0.003-59.13C1625.864,914.779,1625.965,914.779,1626.065,914.779z"/>
					<path style="fill:#303030;" d="M1784.987,1384.583c-0.465-4.696-1.775-9.861-1.706-14.657
						c-0.358-2.582-0.101-5.174,1.384-8.075c0.116,0.706,6.916-16.218,5.932-20.98c-2.228-10.792-5.994-13.481-8.361-15.641
						c-2.258-2.06-4.889-3.518-7.438-5.123c-1.136-0.715-1.468-1.835-1.464-3.112c0.003-1.61-0.031-3.219-0.031-4.83
						c0-46.896,0.002-93.791,0.004-140.686c0-1.208-0.045-2.418,0.019-3.622c0.181-3.372-0.016-13.54-0.017-18.58
						c-0.006-48.903-0.003-97.806-0.003-146.709c0.001-48.903-0.004-97.806,0.006-146.71c0.001-5.984-0.405-17.671-0.811-24.312
						s-1.218-17.732-9.895-37.573c-2.391-5.468-9.172-13.844-11.861-16.189c-2.689-2.346-5.693-5.085-8.643-7.378
						c-10.453-8.126-22.057-13.936-34.912-17.258c-3.571-0.923-10.577-2.114-13.689-2.464c-14.249-1.6-28.558-0.471-42.839-0.743
						c-1.354-0.026-13.984,0.068-17.178,0.061c-33.621-0.077-67.243-0.023-100.864-0.064c-4.849-0.006-11.032-0.005-16.938,0.018
						c-21.742,0.084-43.484,0.136-65.224,0.168c-24.559,0.037-49.12,0.039-73.679,0.055c-0.806,0-1.611,0.016-2.416-0.006
						c-5.202-0.148-11.675-0.001-17.911,0.001c-45.299,0.013-90.597-0.036-135.896,0.079c-3.648,0.009-15.979-0.101-17.309-0.096
						c-12.477,0.047-24.957-0.069-37.432,0.127c-3.443,0.054-16.366-0.096-17.691-0.091c-13.681,0.061-27.362,0.096-41.043,0.077
						c-4.996-0.008-12.642,0.016-14.865,0.019c-1.207,0.002-2.414,0.029-3.621,0.029c-44.477,0.009-88.954,0.016-133.432,0.022
						c-1.006,0-2.018-0.083-3.017,0.002c-2.757,0.235-10.612-0.911-11.502-0.504c-0.91,0.417-1.648-0.161-1.975-0.867
						c-4.598-9.918-13.753-10.763-22.897-11.368c-4.732-0.313-11.94-0.185-15.452-0.055c-3.511,0.13-10.802,1.642-15.869,1.702
						c-10.517,0.125-20.883-0.942-31.23-2.406c-6.471-0.915-12.839-0.633-19.211,0.482c-5.857,1.024-10.773,3.633-13.115,9.403
						c-1.21,2.982-3.09,3.701-6.036,3.675c-11.873-0.106-23.747,0.004-35.621-0.045c-4.555-0.019-11.164-0.06-15.28-0.01
						c-8.653,0.104-17.307,0.05-25.961,0.06c-2.012,0.002-4.025,0-6.037,0v0.011c-8.855,0-17.71-0.017-26.565,0.008
						c-4.029,0.011-8.037,0.266-12.005,1.08c-1.525,0.313-12.173,2.786-15.061,3.187c-1.738,0.241-12.981,4.274-16.797,6.044
						c-19.263,8.937-33.008,23.433-41.055,43.066c-1.757,4.284-3.486,6.724-5.154,13.727c-0.581,4.698-1.138,9.611-1.807,14.509
						c-1.095,8.008-1.065,16.059-1.066,24.112c-0.018,154.414-0.036,308.828-0.054,463.242c0,2.416-0.147,4.843,0.034,7.246
						c0.272,3.604-0.629,6.445-3.359,9.131c-3.39,3.334-4.899,7.842-5.02,12.622c-0.097,3.817-0.207,7.688,0.301,11.454
						c2.077,15.407,0.057,30.509-2.893,45.577c-0.772,3.946-4.158,17.057-4.333,18.733c-0.583,5.599,1.642,13.842,13.021,15.836
						c0.522,4.172,6.334,41.057,41.644,61.586c16.052,9.333,35.08,13.73,53.703,13.626c35.634-0.2,71.27-0.051,106.905-0.028
						c5.659,0.004,5.659,0.044,6.282,5.317c1.213,10.266,6.37,15.223,16.705,16.616c6.705,0.903,13.263,0.151,19.808-0.992
						c15.034-2.624,29.955-3.305,44.803,1.29c6.397,1.98,13.056,2.363,19.737,1.759c12.721-1.151,19.298-7.128,21.174-19.828
						c0.513-3.469,2-4.46,5.104-4.175c0.998,0.092,2.012,0.011,3.019,0.011c92.61-0.001,185.22-0.003,277.831-0.002
						c153.009,0.003,306.017,0.049,459.025-0.026c30.348-0.015,54.515-12.135,71.373-37.834c0.604-0.921,8.079-13.312,13.7-36.269
						c0.36-1.471,0.961-2.108,2.777-2.392c3.685-0.575,8.665-7.41,9.844-9.358c3.97-6.56,4.332-13.682,3.327-21.025
						C1786.469,1405.071,1785.361,1388.362,1784.987,1384.583z M940.995,759.297c-0.014-2.005,1.001-2.926,2.961-2.925
						c1.409,0,2.818-0.036,4.226-0.037c241.976-0.039,483.953-0.077,725.929-0.115c13.779-0.003,27.328,1.563,40.338,6.339
						c16.3,5.983,29.853,15.672,39.787,30.099c0.799,1.159,1.499,2.385,2.28,3.556c1.274,1.909,8.978,24.873,10.078,43.416
						c0.365,6.157,0.651,16.975,0.652,19.165c0.018,150.58,0.022,301.16,0.004,451.74c-0.001,8.818,0.962,8.182-8.049,8.276
						c-79.108,0.823-158.216,1.616-237.325,2.418c-79.511,0.806-159.023,1.593-238.533,2.429
						c-50.927,0.534-101.853,1.141-152.779,1.714c-1.41,0.016-2.825-0.071-4.227,0.03c-2.817,0.203-3.954-1.13-4.127-3.863
						c-1.342-21.333-1.681-42.641,1.774-63.83c1.648-10.109,1.255-10.46-8.773-8.395c-10.056,2.07-20.211,3.478-30.509,3.762
						c-29.428,0.809-58.755-0.147-87.886-4.767c-11.933-1.892-23.758-4.283-35.272-7.991c-5.196-1.672-5.148-1.796-5.262-7.208
						c-0.323-15.495-0.5-30.997-1.074-46.483c-0.168-4.488,1.273-6.828,5.414-8.649c25.738-11.327,52.574-18.856,80.129-24.146
						c26.649-5.117,53.527-6.084,80.544-5.174c3.419,0.116,6.841,0.201,10.262,0.231c5.464,0.047,6.14-0.804,5.239-6.498
						c-0.942-5.96-1.988-11.904-2.846-17.876c-3.208-22.327-1.72-44.475,1.735-66.694c2.389-15.36,6.752-30.218,9.843-45.382
						c0.762-3.741,1.513-7.484,2.381-11.201c0.938-4.02-1.132-6.739-5.257-6.348c-2.378,0.227-4.714,0.991-7.046,1.605
						c-33.711,8.88-64.123,24.639-92.466,44.611c-33.365,23.51-62.038,51.817-86.074,84.813c-0.932,1.281-1.597,2.814-3.53,3.786
						c-0.491-2.312,0.497-4.251,1.067-6.132c4.379-14.436,8.876-28.828,12.125-43.585c4.953-22.496,7.971-45.139,6.711-68.259
						c-1.458-26.739-9.775-50.442-29.862-69.047c-2.411-2.233-2.527-4.79-2.525-7.642c0.021-30.196,0.026-60.393,0.009-90.589
						c-0.015-26.775-0.066-53.549-0.098-80.323C940.961,762.517,941.006,760.907,940.995,759.297z M981.58,1312.105
						c-12.821-12.325-23.927-26.081-32.974-41.441c-2.742-4.655-2.755-4.67,0.681-8.471c3.341-3.697,5.065-8.127,6.144-12.914
						c0.878-3.892,0.988-3.928,4.737-2.843c30.365,8.794,61.472,12.277,92.96,12.714c15.275,0.211,30.589,0.79,45.803-1.365
						c4.179-0.591,8.332-1.362,12.508-1.97c1.926-0.28,3.836-1.212,6.377-0.176c-2.861,21.459-3.51,43.082-1.757,64.76
						c1.735,21.466,4.419,42.725,13.461,63.186c-8.763,0.335-16.662-1.243-24.452-3.013
						C1057.292,1369.721,1016.672,1345.837,981.58,1312.105z M986.563,1325.324c-0.161,0.422-0.323,0.844-0.484,1.265
						c-3.505,0.071-7.01,0.142-10.515,0.212c-1.392,0.027-2.246-0.757-2.764-1.935c-3.199-7.261-6.377-14.531-9.561-21.798
						C971.081,1310.545,978.659,1318.094,986.563,1325.324z M1129.735,1138.131c0.756,4.485,0.455,4.754-4.146,4.539
						c-14.273-0.665-28.534-0.665-42.814,0.059c-30.714,1.559-60.568,7.59-89.883,16.648c-10.768,3.328-21.351,7.125-31.664,11.676
						c-1.629,0.718-3.159,1.777-5.2,1.786c-1.354-1.47-0.739-3.335-0.851-5.026c-0.338-5.108-1.285-10.128-4.647-14.082
						c-2.391-2.812-1.576-4.811,0.08-7.409c12.803-20.092,27.536-38.654,44.159-55.7c32.663-33.492,69.815-60.535,113.285-78.435
						c9.493-3.909,19.187-7.216,29.14-9.753c1.162-0.296,2.288-0.793,4.218-0.23c-0.8,7.278-2.441,14.062-4.319,20.807
						c-7.319,26.286-11.526,53.018-11.035,80.361C1126.268,1115.046,1127.795,1126.618,1129.735,1138.131z M949.563,1203.392
						c0.283,11.859,0.456,23.72,0.584,35.582c0.049,4.433-0.336,8.848-1.892,13.066c-2.141,5.803-5.815,9.292-12.476,9.441
						c-19.101,0.425-38.196,1.116-57.294,1.704c-18.095,0.608-36.195,0.888-54.297,1.108c-9.838,0.119-13.291-3.023-14.165-12.987
						c-0.246-2.8-0.478-5.617-0.451-8.424c0.235-24.539,0.522-49.078,0.824-73.617c0.025-2.004,0.049-4.051,0.458-5.998
						c1.202-5.733,4.426-8.787,10.271-9.359c5.598-0.548,11.235-0.825,16.86-0.94c29.361-0.598,58.723-1.109,88.086-1.64
						c2.212-0.04,4.428-0.073,6.637,0.014c9.899,0.388,15.099,5.445,15.874,15.26C949.55,1178.85,949.271,1191.129,949.563,1203.392
						z M840.519,742.313c5.87-0.78,11.662,0.385,17.404,1.271c11.198,1.729,22.367,2.199,33.676,1.196
						c8.594-0.762,17.228-1.96,25.891-0.73c2.181,0.31,4.356,0.765,6.483,1.339c6.623,1.79,10.03,6.401,10.828,13
						c0.361,2.986,0.365,6.026,0.365,9.042c-0.015,53.533-0.056,107.067-0.092,160.6c-0.001,1.975,0,3.949,0,7.292
						c-8.39-5.447-15.819-9.34-23.883-11.981c-19.106-6.258-38.727-6.783-58.51-5.424c-8.224,0.565-16.43,1.436-24.625,2.345
						c-2.346,0.26-3.447-0.305-3.363-2.736c0.042-1.205-0.016-2.414-0.016-3.621c-0.038-51.32,0.026-102.64-0.185-153.959
						C824.443,747.76,826.774,744.138,840.519,742.313z M874.8,923.48c17.036,0.463,33.758,3.25,48.73,12.013
						c25.821,15.112,39.466,38.121,42.991,67.587c3.406,28.465-0.972,56.2-7.724,83.665c-4.56,18.549-10.376,36.757-16.319,54.917
						c-1.078,3.296-2.526,4.022-6.018,3.967c-18.709-0.294-93.565,1.128-112.275,1.57c-3.385,0.08-5.555-1.104-7.681-3.591
						c-21.623-25.297-41.715-51.624-57.193-81.279c-7.512-14.394-13.829-29.214-16.001-45.283
						c-3.869-28.619,3.825-52.926,28.294-70.456c14.265-10.221,30.423-15.415,47.346-18.593
						C837.387,924.534,856.059,922.971,874.8,923.48z M618.468,882.777c0.006-16.095-0.127-32.188,1.022-48.285
						c2.798-39.201,27.81-67.892,66.381-75.468c8.509-1.671,17.119-2.535,25.797-2.548c33.218-0.051,66.437-0.078,99.655-0.113
						c1.208-0.001,2.419,0.071,3.623,0.002c2.482-0.143,3.781,0.883,3.753,3.465c-0.021,1.81,0.098,3.622,0.097,5.433
						c-0.056,49.727-0.119,99.454-0.18,149.181c-0.001,1.006-0.095,2.023,0.01,3.018c0.346,3.249-1.218,4.513-4.308,5.218
						c-6.463,1.474-12.88,3.217-19.212,5.183c-12.07,3.748-22.819,10.007-32.557,17.999c-15.612,12.811-23.556,29.504-25.883,49.446
						c-2.079,17.812,1.843,34.52,8.392,50.65c10.125,24.937,24.19,47.704,40.552,69.029c7.965,10.38,16.242,20.52,24.976,30.276
						c3.065,3.423,3.082,3.547-0.069,6.482c-5.678,5.287-7.06,12.223-6.654,19.35c0.722,12.693,0.023,25.351-0.064,38.024
						c-0.09,13.085-0.183,26.171-0.245,39.257c-0.023,4.889,0.734,9.613,3.159,13.966c2.041,3.665,5.254,6.004,9.725,8.097
						c-4.235,5.354-7.894,10.137-11.717,14.784c-10.499,12.76-20.281,26.049-29.371,39.839c-1.857,2.817-3.874,4.02-7.322,4.046
						c-47.913,0.351-95.824,0.855-143.736,1.293c-5.755,0.052-5.761-0.027-5.854-5.514c-0.024-1.409-0.005-2.819-0.005-4.228
						C618.431,1174.697,618.405,1028.737,618.468,882.777z M605.303,1420.545c0.086-3.79,0.703-7.615,1.495-11.335
						c3.539-16.61,5.762-33.27,3.331-50.287c-0.508-3.559-0.574-7.246-0.314-10.835c0.582-8.012,4.301-11.459,12.252-11.64
						c6.837-0.156,13.678-0.133,20.517-0.203c40.029-0.407,80.058-0.818,120.087-1.225c1.594-0.016,3.189-0.002,6.024-0.002
						c-1.817,3.511-3.053,5.979-4.36,8.409c-11.978,22.268-19.289,45.88-20.662,71.231c-0.284,5.255,0.184,10.454,0.791,15.645
						c0.241,2.069-0.334,3.043-2.457,3.012c-1.609-0.024-3.218,0.027-4.828,0.028c-35.606,0.03-71.212,0.089-106.818,0.049
						c-4.599-0.005-9.16,0.732-13.814-0.012C608.595,1432.11,605.12,1428.6,605.303,1420.545z M817.364,1508.315
						c-2.631,2.369-7.348,0.766-11.133,0.774c-31.377,0.063-62.755,0.084-94.132,0.013c-12.296-0.027-24.551-0.836-36.326-4.741
						c-28.03-9.298-47.988-28.326-56.157-56.788c-0.498-1.735-0.797-3.527-1.198-5.291c-0.409-1.796,2.094-2.439,3.832-2.534
						c1.405-0.076,2.815-0.083,4.221-0.083c19.108-0.005,38.215-0.003,57.323-0.003v-0.297c19.108,0,38.217,0.119,57.323-0.092
						c4.238-0.047,6.459,1.214,8.06,5.263c5.835,14.759,17.09,24.57,30.618,32.048c10.589,5.853,21.587,10.73,33.485,13.372
						c5.285,1.173,5.434,1.305,5.28,6.8C818.448,1500.695,820.334,1505.638,817.364,1508.315z M934.749,1520.987
						c-0.294,6.03-4.584,9.637-10.25,11.317c-5.718,1.694-11.556,1.527-17.329,0.379c-6.109-1.216-12.126-2.901-18.247-4.045
						c-12.094-2.262-24.05-0.168-35.972,1.67c-5.608,0.865-11.202,1.328-16.821,0.572c-8.144-1.097-11.248-4.586-11.392-12.768
						c-0.119-6.837-0.091-13.679-0.048-20.519c0.031-4.984,0.091-4.996,4.935-4.499c20.633,2.117,41.33,2.827,62.057,2.667
						c12.309-0.095,24.461-1.627,36.412-4.646c1.928-0.487,3.889-0.841,6.792-1.46
						C934.885,1500.547,935.246,1510.787,934.749,1520.987z M894.428,1489.625c-8.037,0.335-16.1,0.056-21.539,0.056
						c-17.252-1.174-31.971-0.92-46.536-3.306c-19.595-3.211-37.7-10.011-53.701-21.847c-15.086-11.158-22.757-26.453-22.805-45.103
						c-0.064-25.498,7.394-49.156,19.116-71.587c10.022-19.177,23.039-36.348,36.039-53.519
						c5.101-6.737,10.478-13.264,15.649-19.948c1.988-2.569,4.405-3.896,7.696-3.857c2.61,0.031,5.223-0.31,7.838-0.377
						c31.187-0.812,62.378-1.495,93.558-2.514c4.81-0.157,7.421,1.853,9.676,5.537c17.864,29.185,32.503,59.688,38.99,93.625
						c3.331,17.426,6.294,34.854,5.04,52.714c-0.708,10.093-2.375,19.963-6.134,29.411c-5.06,12.722-13.529,22.069-26.175,27.802
						C933.076,1484.901,914.099,1488.805,894.428,1489.625z M1763.302,1447.039c-1.934,8.469-5.166,16.504-9.512,24.045
						c-12.684,22.005-31.938,33.963-56.956,36.896c-7.996,0.938-16.049,1.156-24.107,1.156
						c-241.11-0.014-482.219-0.009-723.328-0.02c-9.089-0.001-8.28,0.906-8.332-8.555c-0.015-2.818,0.172-5.649-0.045-8.449
						c-0.254-3.277,0.729-5.365,4.123-6.259c2.12-0.559,4.093-1.666,6.147-2.489c17.267-6.918,27.993-19.721,33.576-37.198
						c2.247-7.035,2.301-7.024,9.888-7.024c126.995-0.002,634.973-0.534,761.969-0.538
						C1766.726,1438.604,1765.295,1438.316,1763.302,1447.039z M1778.91,1395.872c1.099,5.536,1.954,11.099,2.311,16.726
						c0.352,5.562-0.587,10.772-4.096,15.386c-2.102,2.764-4.539,4.485-8.102,4.367c-1.408-0.046-2.818,0.012-4.226,0.013
						c-227.03,0.246-454.06,0.49-681.09,0.736c-28.781,0.032-57.563,0.068-86.344,0.102c-1.007,0.002-2.013,0.008-3.02,0.002
						c-6.007-0.039-6.142-0.057-5.404-5.752c2.84-21.923-0.7-43.329-5.157-64.653c-1.727-8.266-3.746-16.471-6.407-24.503
						c-0.494-1.488-0.776-3.047-1.404-5.571c6.363,0,11.779,0.027,17.192-0.011c2.702-0.019,4.377,1.82,6.254,3.291
						c19.265,15.103,40.101,27.579,62.6,37.224c21.792,9.342,44.392,15.528,68.171,16.923c2.411,0.142,4.824,0.38,7.17-0.472
						c3.056-1.11,3.944-3.301,1.636-5.376c-5.587-5.022-7.461-11.833-9.491-18.537c-2.979-9.841-4.501-20.002-5.841-30.177
						c-0.492-3.74-0.158-4.058,3.75-4.236c2.411-0.11,4.83-0.05,7.245-0.073c51.723-0.503,103.445-0.995,155.167-1.513
						c79.898-0.801,159.795-1.621,239.693-2.43c78.086-0.789,156.171-1.579,234.256-2.354c10.238-0.102,16.453,3.749,18.759,11.736
						c1.196,4.146,1.325,8.436-0.523,12.422C1774.963,1364.344,1775.765,1380.03,1778.91,1395.872z"/>
				</g>
			</g>
		</g>
		<g>
			<path style="fill:#FFFFFF;" d="M581.106,924.206c-28.668-16.925-68.993-39.065-99.867-4.41
				c-30.874,34.654,28.629,146.13,90.081,152.297c61.452,6.167,116.493-123.944,106.457-145.681
				C667.741,904.674,629.307,903.729,581.106,924.206z"/>
			<g>
				<g>
					<g>
						<path style="fill:#ED7372;" d="M675.987,929.453c7.482,16.487,7.221,33.017,0.763,49.791
							c-11.205,29.105-30.847,51.505-55.307,70.057c-9.925,7.528-20.901,13.464-31.768,19.516c-2.708,1.508-5.453,3.029-8.657,3.274
							c-1.402-4.39-4.362-7.079-8.472-9.246c-32.85-17.319-55.954-43.946-71.845-77.01c-6.785-14.116-8.519-29.123-3.958-44.506
							c3.92-13.226,14.651-21.783,28.492-22.85c8.913-0.687,17.204,1.351,25.461,4.44c10.861,4.063,20.278,10.789,30.503,16.015
							c4.081,2.086,7.284,2.519,11.021-0.591c11.02-9.172,24.185-14.017,37.898-17.051
							C646.359,917.698,662.247,918.043,675.987,929.453z"/>
					</g>
					<g>
						<path style="fill:#303030;" d="M466.94,950.716c0.109-33.168,20.329-53.071,52.672-52.676
							c7.206,0.088,14.204,1.307,21.138,3.135c12.748,3.36,24.612,8.796,35.417,16.225c4.792,3.295,8.461,3.147,13.427,0.505
							c12.976-6.903,26.841-11.35,41.496-13.243c8.457-1.092,16.78-0.55,24.95,1.641c18.447,4.947,29.978,19.923,30.882,39.721
							c0.55,12.03-2.027,23.502-6.519,34.53c-13.581,33.349-36.989,58.549-66.127,78.861c-9.708,6.767-20.194,12.131-31.037,16.931
							c-7.424,3.286-14.203,3.095-21.49-0.135c-9.988-4.428-19.553-9.543-28.376-15.961c-28.354-20.625-49.805-46.594-61.332-80.099
							C468.687,970.4,466.695,960.365,466.94,950.716z M476.235,952.331c0.088,1.333,0.047,4.16,0.508,6.902
							c0.719,4.28,1.422,8.617,2.747,12.733c14.586,45.286,44.387,76.743,87.512,96.103c4.418,1.984,8.318,1.383,12.473-0.442
							c39.277-17.244,69.214-44.526,88.856-82.794c5.004-9.749,8.057-20.183,9.188-31.114c1.986-19.206-7.63-34.288-24.823-38.511
							c-6.017-1.478-12.174-2.007-18.487-1.397c-16.747,1.615-31.99,7.549-46.386,15.801c-4.412,2.53-7.603,2.61-11.657-0.674
							c-8.512-6.896-18.345-11.658-28.508-15.604c-10.803-4.195-21.973-6.72-33.692-5.899
							c-19.447,1.362-32.296,12.457-36.577,31.406C476.489,942.83,476.267,946.825,476.235,952.331z"/>
					</g>
				</g>
			</g>
		</g>
		<g>
			<path style="fill:#FFFFFF;" d="M1827.19,1011.202c-28.668-16.925-68.993-39.065-99.867-4.41s28.629,146.13,90.081,152.297
				c61.452,6.167,116.493-123.944,106.457-145.681C1913.825,991.67,1875.391,990.725,1827.19,1011.202z"/>
			<g>
				<g>
					<g>
						<path style="fill:#ED7372;" d="M1922.071,1016.45c7.482,16.487,7.221,33.017,0.763,49.791
							c-11.205,29.105-30.847,51.505-55.307,70.057c-9.925,7.528-20.901,13.464-31.768,19.516c-2.708,1.508-5.453,3.029-8.657,3.274
							c-1.402-4.39-4.362-7.079-8.472-9.246c-32.85-17.319-55.954-43.946-71.845-77.01c-6.785-14.116-8.519-29.123-3.958-44.506
							c3.92-13.226,14.651-21.783,28.492-22.85c8.913-0.687,17.204,1.351,25.461,4.44c10.861,4.063,20.278,10.789,30.503,16.015
							c4.081,2.086,7.284,2.519,11.021-0.592c11.02-9.172,24.185-14.017,37.898-17.051
							C1892.443,1004.695,1908.331,1005.039,1922.071,1016.45z"/>
					</g>
					<g>
						<path style="fill:#303030;" d="M1713.025,1037.712c0.109-33.168,20.329-53.071,52.672-52.676
							c7.206,0.088,14.204,1.307,21.138,3.135c12.748,3.36,24.612,8.796,35.417,16.225c4.792,3.295,8.461,3.147,13.427,0.505
							c12.976-6.903,26.841-11.351,41.496-13.243c8.457-1.092,16.78-0.55,24.95,1.64c18.447,4.947,29.978,19.923,30.882,39.721
							c0.55,12.03-2.027,23.502-6.519,34.53c-13.581,33.349-36.989,58.549-66.127,78.861c-9.708,6.767-20.194,12.131-31.037,16.931
							c-7.424,3.286-14.203,3.095-21.49-0.135c-9.988-4.428-19.553-9.543-28.376-15.961c-28.354-20.625-49.805-46.594-61.331-80.099
							C1714.771,1057.396,1712.779,1047.361,1713.025,1037.712z M1722.319,1039.327c0.088,1.333,0.047,4.159,0.508,6.902
							c0.719,4.28,1.422,8.617,2.747,12.733c14.586,45.286,44.387,76.743,87.512,96.103c4.418,1.984,8.318,1.383,12.473-0.442
							c39.277-17.244,69.214-44.526,88.856-82.794c5.004-9.749,8.057-20.183,9.188-31.114c1.986-19.206-7.63-34.287-24.823-38.511
							c-6.017-1.478-12.174-2.007-18.487-1.397c-16.747,1.615-31.99,7.549-46.386,15.801c-4.412,2.53-7.603,2.61-11.657-0.674
							c-8.512-6.896-18.345-11.658-28.508-15.604c-10.803-4.195-21.973-6.72-33.692-5.899
							c-19.447,1.362-32.296,12.457-36.577,31.406C1722.573,1029.826,1722.351,1033.821,1722.319,1039.327z"/>
					</g>
				</g>
			</g>
		</g>
	</g>
</g>
</svg>
